<svg width="1024" height="1024" viewBox="0 0 500 500" fill="none" xmlns="http://www.w3.org/2000/svg">
<defs>
<linearGradient id="bgGradient" x1="0%" y1="0%" x2="100%" y2="100%">
<stop offset="0%" style="stop-color:#101626;stop-opacity:1" />
<stop offset="100%" style="stop-color:#111111;stop-opacity:1" />
</linearGradient>
</defs>
<rect width="500" height="500" rx="100" ry="100" fill="url(#bgGradient)"/><path d="M403.964 277.684C404 270.262 404 262.379 404 254C404 183.289 404 147.934 382.034 125.967C360.066 104 324.71 104 254 104C183.289 104 147.934 104 125.967 125.967C104 147.934 104 183.289 104 254C104 324.71 104 360.066 125.967 382.034C147.934 404 183.289 404 254 404C262.379 404 270.262 404 277.684 403.964" stroke="#f86d6d" stroke-width="15" stroke-linecap="round"/>
<path d="M344.792 293.75L348.553 303.915C353.485 317.244 355.951 323.908 360.813 328.77C365.675 333.632 372.34 336.099 385.669 341.031L395.833 344.792L385.669 348.553C372.34 353.485 365.675 355.951 360.813 360.813C355.951 365.675 353.485 372.34 348.553 385.669L344.792 395.833L341.031 385.669C336.099 372.34 333.632 365.675 328.77 360.813C323.908 355.951 317.244 353.485 303.915 348.553L293.75 344.792L303.915 341.031C317.244 336.099 323.908 333.632 328.77 328.77C333.632 323.908 336.099 317.244 341.031 303.915L344.792 293.75Z" stroke="#f86d6d" stroke-width="15" stroke-linejoin="round"/>
<path d="M166.667 166.667L187.109 184.286C195.703 191.694 200 195.398 200 200C200 204.602 195.703 208.306 187.109 215.713L166.667 233.333" stroke="#f86d6d" stroke-width="15" stroke-linecap="round" stroke-linejoin="round"/>
<path d="M233.333 233.333H283.333" stroke="#f86d6d" stroke-width="15" stroke-linecap="round" stroke-linejoin="round"/>
</svg>
